REM DIRINDEX 1\2,1\3,1\4,1\5
REM DIRNAME cjc046,folder01,folder02,folder03,folder04
TITLE ""
FILE "096.mp3" MP3
  TRACK 01 AUDIO
    TITLE "0:"
    INDEX 01 00:00:00
  TRACK 02 AUDIO
    TITLE "2:cjc046_2051"
    INDEX 01 00:00:15
  TRACK 03 AUDIO
    TITLE "0:"
    INDEX 01 00:01:26
  TRACK 04 AUDIO
    TITLE "3:cjc046_2052"
    INDEX 01 00:01:44
  TRACK 05 AUDIO
    TITLE "0:"
    INDEX 01 00:02:65
  TRACK 06 AUDIO
    TITLE "4:cjc046_2053"
    INDEX 01 00:03:06
  TRACK 07 AUDIO
    TITLE "0:"
    INDEX 01 00:04:17
  TRACK 08 AUDIO
    TITLE "2:cjc046_2054"
    INDEX 01 00:05:22
  TRACK 09 AUDIO
    TITLE "0:"
    INDEX 01 00:06:26
  TRACK 10 AUDIO
    TITLE "3:cjc046_2055"
    INDEX 01 00:06:51
  TRACK 11 AUDIO
    TITLE "0:"
    INDEX 01 00:07:68
  TRACK 12 AUDIO
    TITLE "4:cjc046_2056"
    INDEX 01 00:08:03
  TRACK 13 AUDIO
    TITLE "0:"
    INDEX 01 00:09:06
  TRACK 14 AUDIO
    TITLE "2:cjc046_2057"
    INDEX 01 00:10:16
  TRACK 15 AUDIO
    TITLE "0:"
    INDEX 01 00:11:23
  TRACK 16 AUDIO
    TITLE "3:cjc046_2058"
    INDEX 01 00:11:48
  TRACK 17 AUDIO
    TITLE "0:"
    INDEX 01 00:12:71
  TRACK 18 AUDIO
    TITLE "4:cjc046_2059"
    INDEX 01 00:13:10
  TRACK 19 AUDIO
    TITLE "0:"
    INDEX 01 00:14:17
  TRACK 20 AUDIO
    TITLE "2:cjc046_2060"
    INDEX 01 00:15:25
  TRACK 21 AUDIO
    TITLE "0:"
    INDEX 01 00:16:38
  TRACK 22 AUDIO
    TITLE "3:cjc046_2061"
    INDEX 01 00:16:67
  TRACK 23 AUDIO
    TITLE "0:"
    INDEX 01 00:18:17
  TRACK 24 AUDIO
    TITLE "4:cjc046_2062"
    INDEX 01 00:18:27
  TRACK 25 AUDIO
    TITLE "0:"
    INDEX 01 00:19:42
  TRACK 26 AUDIO
    TITLE "2:cjc046_2063"
    INDEX 01 00:20:51
  TRACK 27 AUDIO
    TITLE "0:"
    INDEX 01 00:21:45
  TRACK 28 AUDIO
    TITLE "3:cjc046_2064"
    INDEX 01 00:21:70
  TRACK 29 AUDIO
    TITLE "0:"
    INDEX 01 00:23:38
  TRACK 30 AUDIO
    TITLE "4:cjc046_2065"
    INDEX 01 00:23:53
  TRACK 31 AUDIO
    TITLE "0:"
    INDEX 01 00:24:47
  TRACK 32 AUDIO
    TITLE "2:cjc046_2066"
    INDEX 01 00:25:56
  TRACK 33 AUDIO
    TITLE "0:"
    INDEX 01 00:26:62
  TRACK 34 AUDIO
    TITLE "3:cjc046_2067"
    INDEX 01 00:27:12
  TRACK 35 AUDIO
    TITLE "0:"
    INDEX 01 00:28:33
  TRACK 36 AUDIO
    TITLE "4:cjc046_2068"
    INDEX 01 00:28:45
  TRACK 37 AUDIO
    TITLE "0:"
    INDEX 01 00:29:50
  TRACK 38 AUDIO
    TITLE "2:cjc046_2069"
    INDEX 01 00:30:59
  TRACK 39 AUDIO
    TITLE "0:"
    INDEX 01 00:31:63
  TRACK 40 AUDIO
    TITLE "3:cjc046_2070"
    INDEX 01 00:32:13
  TRACK 41 AUDIO
    TITLE "0:"
    INDEX 01 00:33:26
  TRACK 42 AUDIO
    TITLE "4:cjc046_2071"
    INDEX 01 00:33:48
  TRACK 43 AUDIO
    TITLE "0:"
    INDEX 01 00:34:53
  TRACK 44 AUDIO
    TITLE "2:cjc046_2072"
    INDEX 01 00:35:61
  TRACK 45 AUDIO
    TITLE "0:"
    INDEX 01 00:36:74
  TRACK 46 AUDIO
    TITLE "3:cjc046_2073"
    INDEX 01 00:37:24
  TRACK 47 AUDIO
    TITLE "0:"
    INDEX 01 00:38:63
  TRACK 48 AUDIO
    TITLE "4:cjc046_2074"
    INDEX 01 00:38:71
  TRACK 49 AUDIO
    TITLE "0:"
    INDEX 01 00:40:09
  TRACK 50 AUDIO
    TITLE "2:cjc046_2075"
    INDEX 01 00:41:12
  TRACK 51 AUDIO
    TITLE "0:"
    INDEX 01 00:42:21
  TRACK 52 AUDIO
    TITLE "3:cjc046_2076"
    INDEX 01 00:42:49
  TRACK 53 AUDIO
    TITLE "0:"
    INDEX 01 00:44:38
  TRACK 54 AUDIO
    TITLE "4:cjc046_2077"
    INDEX 01 00:44:46
  TRACK 55 AUDIO
    TITLE "0:"
    INDEX 01 00:45:53
  TRACK 56 AUDIO
    TITLE "2:cjc046_2078"
    INDEX 01 00:46:62
  TRACK 57 AUDIO
    TITLE "0:"
    INDEX 01 00:47:60
  TRACK 58 AUDIO
    TITLE "3:cjc046_2079"
    INDEX 01 00:48:04
  TRACK 59 AUDIO
    TITLE "0:"
    INDEX 01 00:49:29
  TRACK 60 AUDIO
    TITLE "4:cjc046_2080"
    INDEX 01 00:49:41
  TRACK 61 AUDIO
    TITLE "0:"
    INDEX 01 00:50:39
  TRACK 62 AUDIO
    TITLE "2:cjc046_2081"
    INDEX 01 00:51:48
  TRACK 63 AUDIO
    TITLE "0:"
    INDEX 01 00:52:39
  TRACK 64 AUDIO
    TITLE "3:cjc046_2082"
    INDEX 01 00:52:67
  TRACK 65 AUDIO
    TITLE "0:"
    INDEX 01 00:54:38
  TRACK 66 AUDIO
    TITLE "4:cjc046_2083"
    INDEX 01 00:54:50
  TRACK 67 AUDIO
    TITLE "0:"
    INDEX 01 00:55:42
